#!OML:ASF I:\Actors\actors\Patient Classification 1\Patient 1\Session 1\Subject1.ASF
:FULLY-SPECIFIED
:DEGREES
1312
root 0.744986 17.5175 9.74187 12.5821 -8.50522 -12.5067
lowerback 0.0843374 1.7858 7.76228
upperback -8.41573 2.95958 2.63885
thorax -8.73208 0.991841 -1.74357
lowerneck -16.0441 -2.40437 -1.47033
upperneck 28.803 -5.73038 8.29781
head 12.5309 -1.65366 2.52779
rclavicle -2.48481e-015 2.22639e-014
rhumerus -5.35061 51.9059 -91.6933
rradius 91.139
rwrist 11.3191
rhand 2.78056 -63.9436
rfingers 7.12502
rthumb 28.2508 451.834
lclavicle -2.48481e-015 2.22639e-014
lhumerus -23.314 -27.0076 79.3316
lradius 95.9778
lwrist -27.573
lhand -17.2094 -37.3731
lfingers 7.12502
lthumb 9.0333 -7.58648
rfemur -6.91968 20.9753 27.515
rtibia 4.85836
rfoot -11.9355 -16.9502
rtoes -5.58389
lfemur 11.3634 -50.9003 -14.9285
ltibia -5.22041
lfoot -52.7841 60.3186
ltoes 29.3837
1313
root 0.742877 17.5166 9.74508 12.5011 -8.14901 -12.4399
lowerback 0.0729515 1.69302 7.65991
upperback -8.38463 2.82632 2.62511
thorax -8.70388 0.935213 -1.69242
lowerneck -16.1249 -2.45284 -1.65581
upperneck 28.735 -5.83173 8.58741
head 12.5445 -1.68123 2.65402
rclavicle 7.60351e-015 -3.93594e-014
rhumerus -7.67149 52.3313 -92.6619
rradius 92.9364
rwrist 10.9364
rhand 3.60905 -64.9791
rfingers 7.12502
rthumb 29.0424 452.736
lclavicle 7.60351e-015 -3.93594e-014
lhumerus -23.1653 -27.1318 79.2713
lradius 96.0708
lwrist -27.2766
lhand -17.3981 -37.5371
lfingers 7.12502
lthumb 8.85115 -7.74273
rfemur -6.82758 20.7359 27.5094
rtibia 4.85089
rfoot -12.0366 -17.1308
rtoes -5.39579
lfemur 11.182 -50.8659 -14.7988
ltibia -5.15084
lfoot -52.0312 60.1134
ltoes 29.0839
1314
root 0.73389 17.5202 9.74987 12.4302 -7.88275 -12.062
lowerback -0.0449312 1.61293 7.08148
upperback -8.31519 2.67223 2.58328
thorax -8.5809 0.906009 -1.40404
lowerneck -16.3086 -2.52325 -1.88183
upperneck 28.6496 -5.92223 8.78724
head 12.5697 -1.7175 2.75335
rclavicle -4.35338e-014 3.89618e-014
rhumerus -9.94854 52.7128 -93.6528
rradius 94.5637
rwrist 10.5442
rhand 4.29479 -66.4843
rfingers 7.12502
rthumb 29.6971 454.126
lclavicle -4.35338e-014 3.89618e-014
lhumerus -22.9704 -27.2126 79.248
lradius 96.1316
lwrist -27.1838
lhand -17.6812 -37.7138
lfingers 7.12502
lthumb 8.57802 -7.90801
rfemur -6.8438 20.8342 27.117
rtibia 4.89957
rfoot -12.251 -17.5985
rtoes -4.95541
lfemur 10.8616 -50.8437 -14.9036
ltibia -5.0561
lfoot -51.4418 59.8644
ltoes 28.9853
1315
root 0.724753 17.5231 9.75477 12.3591 -7.67644 -11.6395
lowerback -0.144002 1.53594 6.44929
upperback -8.23535 2.52257 2.53484
thorax -8.45686 0.881657 -1.0936
lowerneck -16.4592 -2.5625 -1.92548
upperneck 28.4888 -5.95261 8.79498
head 12.5399 -1.73451 2.75379
rclavicle -3.21534e-014 3.1408e-014
rhumerus -12.0116 53.0121 -94.6086
rradius 95.8805
rwrist 10.3526
rhand 3.03115 -66.319
rfingers 7.12502
rthumb 28.4903 454.169
lclavicle -3.21534e-014 3.1408e-014
lhumerus -22.7644 -27.18 79.1928
lradius 96.1417
lwrist -27.1614
lhand -17.5565 -37.3885
lfingers 7.12502
lthumb 8.69835 -7.58767
rfemur -6.88942 20.9507 26.6711
rtibia 5.00453
rfoot -12.4316 -18.0653
rtoes -4.89335
lfemur 10.6421 -50.9202 -15.161
ltibia -4.97068
lfoot -51.0057 59.7652
ltoes 28.88
1316
root 0.729157 17.5169 9.75434 12.1636 -7.31445 -11.9691
lowerback 0.126287 1.42259 6.90373
upperback -8.15928 2.41923 2.62488
thorax -8.53341 0.80071 -1.24961
lowerneck -16.5391 -2.5384 -1.82425
upperneck 28.4249 -5.90189 8.66905
head 12.519 -1.71645 2.69325
rclavicle -7.85199e-015 1.70955e-014
rhumerus -13.6248 53.3138 -95.4111
rradius 96.8529
rwrist 10.3142
rhand 2.16376 -65.1467
rfingers 7.12502
rthumb 27.6612 453.133
lclavicle -7.85199e-015 1.70955e-014
lhumerus -22.7531 -27.0764 79.1449
lradius 96.1162
lwrist -27.3396
lhand -17.4002 -37.2458
lfingers 7.12502
lthumb 8.84917 -7.45131
rfemur -6.65008 20.5787 27.1927
rtibia 5.11398
rfoot -12.4968 -18.0638
rtoes -5.29701
lfemur 10.8465 -50.7489 -14.8633
ltibia -5.04084
lfoot -49.8314 59.7384
ltoes 28.2257
1317
root 0.736714 17.5105 9.75226 12.0005 -6.99471 -12.3798
lowerback 0.336475 1.30951 7.4795
upperback -8.09482 2.32164 2.75135
thorax -8.58867 0.715809 -1.43179
lowerneck -16.5957 -2.48123 -1.68656
upperneck 28.4954 -5.79161 8.42988
head 12.5376 -1.6799 2.59598
rclavicle -3.47873e-016 5.36719e-014
rhumerus -14.4692 53.554 -95.7858
rradius 97.5385
rwrist 10.4595
rhand 4.45225 -64.1138
rfingers 7.12502
rthumb 29.8474 451.729
lclavicle -3.47873e-016 5.36719e-014
lhumerus -22.8623 -26.9577 79.1534
lradius 96.1007
lwrist -27.5986
lhand -17.0885 -37.3746
lfingers 7.12502
lthumb 9.1499 -7.59311
rfemur -6.46459 20.1499 27.767
rtibia 5.2352
rfoot -12.5447 -17.9079
rtoes -5.61255
lfemur 10.9484 -50.4143 -14.3927
ltibia -5.11259
lfoot -48.5707 59.595
ltoes 27.6096
1318
root 0.739134 17.5091 9.75257 11.9607 -6.88567 -12.4325
lowerback 0.306306 1.24135 7.58188
upperback -8.08783 2.23315 2.77904
thorax -8.56983 0.666779 -1.45186
lowerneck -16.5343 -2.40135 -1.5719
upperneck 28.6076 -5.67675 8.29228
head 12.5536 -1.63297 2.54439
rclavicle 7.8023e-015 4.37326e-015
rhumerus -14.646 53.5714 -95.896
rradius 97.8133
rwrist 10.7881
rhand 2.12927 -65.2363
rfingers 7.12502
rthumb 27.6282 453.228
lclavicle 7.8023e-015 4.37326e-015
lhumerus -23.0371 -26.9014 79.1436
lradius 96.1377
lwrist -27.6589
lhand -16.793 -37.425
lfingers 7.12502
lthumb 9.43505 -7.65614
rfemur -6.48484 20.0153 27.8432
rtibia 5.35903
rfoot -12.5796 -17.874
rtoes -5.78604
lfemur 10.8317 -50.1625 -14.197
ltibia -5.11944
lfoot -47.8892 59.4406
ltoes 27.3849
1319
root 0.740367 17.5099 9.75307 11.9779 -6.94964 -12.4123
lowerback 0.241991 1.22598 7.61607
upperback -8.12732 2.20684 2.74089
thorax -8.57569 0.648631 -1.50764
lowerneck -16.3991 -2.3127 -1.4917
upperneck 28.7501 -5.5896 8.3073
head 12.5758 -1.58361 2.55454
rclavicle -2.5345e-015 3.18055e-014
rhumerus -14.2338 53.3736 -95.7828
rradius 97.6223
rwrist 11.1202
rhand 2.34154 -65.8564
rfingers 7.12502
rthumb 27.8312 453.815
lclavicle -2.5345e-015 3.18055e-014
lhumerus -23.264 -26.8843 79.1137
lradius 96.1641
lwrist -27.7385
lhand -16.7474 -37.5001
lfingers 7.12502
lthumb 9.47904 -7.73324
rfemur -6.55399 20.0386 27.8006
rtibia 5.44422
rfoot -12.5799 -17.8144
rtoes -5.67735
lfemur 10.7662 -50.0134 -14.1639
ltibia -5.13293
lfoot -47.6548 59.4344
ltoes 27.2736
1320
root 0.74098 17.5116 9.75318 12.0111 -7.15033 -12.3825
lowerback 0.149816 1.28677 7.60506
upperback -8.16896 2.27732 2.69591
thorax -8.55984 0.681788 -1.55185
lowerneck -16.1725 -2.28306 -1.43564
upperneck 28.8102 -5.57239 8.32396
head 12.5507 -1.57223 2.55649
rclavicle -6.06293e-015 -7.95139e-016
rhumerus -13.2981 52.9751 -95.3165
rradius 97.1154
rwrist 11.4477
rhand 3.92587 -66.432
rfingers 7.12502
rthumb 29.3449 454.136
lclavicle -6.06293e-015 -7.95139e-016
lhumerus -23.4465 -26.9328 79.1637
lradius 96.1602
lwrist -27.8322
lhand -16.6581 -37.5586
lfingers 7.12502
lthumb 9.56524 -7.7957
rfemur -6.63808 20.1269 27.7308
rtibia 5.53118
rfoot -12.5724 -17.6914
rtoes -5.51775
lfemur 10.7787 -49.8687 -14.2215
ltibia -5.16235
lfoot -47.6611 59.489
ltoes 27.2289
